<?xml version="1.0" encoding="utf-8"?>
<!-- Generator: Adobe Illustrator 15.1.0, SVG Export Plug-In . SVG Version: 6.00 Build 0)  -->
<!DOCTYPE svg PUBLIC "-//W3C//DTD SVG 1.1//EN" "http://www.w3.org/Graphics/SVG/1.1/DTD/svg11.dtd">
<svg version="1.1" id="Ebene_3" xmlns="http://www.w3.org/2000/svg" xmlns:xlink="http://www.w3.org/1999/xlink" x="0px" y="0px"
	 width="1024px" height="768px" viewBox="0 0 1024 768" enable-background="new 0 0 1024 768" xml:space="preserve">
<path fill="none" stroke="#000000" stroke-miterlimit="10" d="M136,458c0-30.017,24-54,59-66s45-9,70-8s40-12,58-36s43-65,126-66
	s149,5,180,5s60-3,70,5s24,77,39,86.5s61,3.5,91,16.5s36,33,45,63s13,54-32,52s-101,0.232-129,0.116S687,508,677,498s-7-27-40-27
	s-31,22-40,28s-34,6-64,5s-190-5-207-6s-21-35-48-34c-24,0-39,17-43,29s-33,5-46,5S136,506,136,458z"/>
<circle fill="none" stroke="#000000" stroke-miterlimit="10" cx="273" cy="506" r="33"/>
<circle fill="none" stroke="#000000" stroke-miterlimit="10" cx="640" cy="510.121" r="31"/>
<path fill="none" stroke="#000000" stroke-miterlimit="10" d="M442,293c11.535,3.455,16,8,16,15s2,79.008,0,88.004S452,412,442,413
	s-87,0-96,0s-9-12,0-24s69-92,77-96S432.329,290.104,442,293z"/>
<path fill="none" stroke="#000000" stroke-miterlimit="10" d="M483.874,290.272c12,0,114.063,5.665,125.063,5.665
	S622.5,303,622.5,309.5s0,83.5,0,93.5s-4,14.5-14.75,14.5s-113.75,0-123.75,0s-16.5-1.996-16.5-16.248s0-87.252,0-98.252
	S476.841,290.272,483.874,290.272z"/>
<path fill="none" stroke="#000000" stroke-miterlimit="10" d="M634.5,306c0,14,0,90,0,100s5.5,14.5,14.5,14.5s76,0,83,0
	s10.002-14.494,0-24.496S675,321,662,308S634.5,295,634.5,306z"/>
</svg>
